{
    "asset" : {
        "generator" : "Khronos glTF Blender I/O v3.3.32",
        "version" : "2.0"
    },
    "scene" : 0,
    "scenes" : [
        {
            "name" : "Scene",
            "nodes" : [
                0,
                6
            ]
        }
    ],
    "nodes" : [
        {
            "name" : "Empty",
            "rotation" : [
                0.5,
                0.5,
                -0.5,
                0.5
            ],
            "scale" : [
                0.6473166942596436,
                0.6473166942596436,
                0.6473166942596436
            ],
            "translation" : [
                -0.7510872483253479,
                0.4486199915409088,
                -0.4680269956588745
            ]
        },
        {
            "name" : "God_Head",
            "rotation" : [
                -4.069853076771324e-08,
                1.1102228922762585e-16,
                1.1102230246251565e-16,
                1
            ],
            "scale" : [
                1,
                0.9999999403953552,
                0.9999999403953552
            ],
            "translation" : [
                -1.1580528575742387e-23,
                -4.104315998176844e-09,
                -2.8971260945809263e-08
            ]
        },
        {
            "name" : "God_Tail",
            "rotation" : [
                0.09282785654067993,
                -1.1869456528756928e-07,
                1.1065943716914717e-08,
                0.9956821799278259
            ],
            "scale" : [
                1,
                0.9999999403953552,
                0.9999999403953552
            ],
            "translation" : [
                1.1479574106890936e-14,
                1.347622275352478,
                -5.960464477539063e-08
            ]
        },
        {
            "children" : [
                2
            ],
            "name" : "God_Abdo",
            "rotation" : [
                0.06236295774579048,
                -3.248173824636942e-14,
                1.4868489550678987e-08,
                0.9980535507202148
            ],
            "scale" : [
                1,
                1,
                0.9999999403953552
            ],
            "translation" : [
                1.6467677864921574e-15,
                1.5085004568099976,
                -2.2351741790771484e-08
            ]
        },
        {
            "children" : [
                3
            ],
            "name" : "God_Torso",
            "rotation" : [
                -0.9972923994064331,
                8.76657679782511e-09,
                -1.1888657525105373e-07,
                0.0735393539071083
            ],
            "translation" : [
                -1.3234889800848443e-23,
                -4.104316442266054e-09,
                -2.8971260945809263e-08
            ]
        },
        {
            "mesh" : 0,
            "name" : "God",
            "skin" : 0
        },
        {
            "children" : [
                5,
                1,
                4
            ],
            "name" : "God_Rig",
            "rotation" : [
                0.7071068286895752,
                0,
                0,
                0.7071068286895752
            ],
            "scale" : [
                0.5769315361976624,
                0.5769315361976624,
                0.5769315361976624
            ],
            "translation" : [
                0,
                0.054171446710824966,
                0.48071932792663574
            ]
        }
    ],
    "animations" : [
        {
            "channels" : [
                {
                    "sampler" : 0,
                    "target" : {
                        "node" : 1,
                        "path" : "translation"
                    }
                },
                {
                    "sampler" : 1,
                    "target" : {
                        "node" : 1,
                        "path" : "rotation"
                    }
                },
                {
                    "sampler" : 2,
                    "target" : {
                        "node" : 1,
                        "path" : "scale"
                    }
                },
                {
                    "sampler" : 3,
                    "target" : {
                        "node" : 4,
                        "path" : "translation"
                    }
                },
                {
                    "sampler" : 4,
                    "target" : {
                        "node" : 4,
                        "path" : "rotation"
                    }
                },
                {
                    "sampler" : 5,
                    "target" : {
                        "node" : 4,
                        "path" : "scale"
                    }
                },
                {
                    "sampler" : 6,
                    "target" : {
                        "node" : 3,
                        "path" : "translation"
                    }
                },
                {
                    "sampler" : 7,
                    "target" : {
                        "node" : 3,
                        "path" : "rotation"
                    }
                },
                {
                    "sampler" : 8,
                    "target" : {
                        "node" : 3,
                        "path" : "scale"
                    }
                },
                {
                    "sampler" : 9,
                    "target" : {
                        "node" : 2,
                        "path" : "translation"
                    }
                },
                {
                    "sampler" : 10,
                    "target" : {
                        "node" : 2,
                        "path" : "rotation"
                    }
                },
                {
                    "sampler" : 11,
                    "target" : {
                        "node" : 2,
                        "path" : "scale"
                    }
                }
            ],
            "name" : "God_RigAction.002",
            "samplers" : [
                {
                    "input" : 7,
                    "interpolation" : "LINEAR",
                    "output" : 8
                },
                {
                    "input" : 7,
                    "interpolation" : "LINEAR",
                    "output" : 9
                },
                {
                    "input" : 7,
                    "interpolation" : "LINEAR",
                    "output" : 10
                },
                {
                    "input" : 7,
                    "interpolation" : "LINEAR",
                    "output" : 11
                },
                {
                    "input" : 7,
                    "interpolation" : "LINEAR",
                    "output" : 12
                },
                {
                    "input" : 7,
                    "interpolation" : "LINEAR",
                    "output" : 13
                },
                {
                    "input" : 7,
                    "interpolation" : "LINEAR",
                    "output" : 14
                },
                {
                    "input" : 7,
                    "interpolation" : "LINEAR",
                    "output" : 15
                },
                {
                    "input" : 7,
                    "interpolation" : "LINEAR",
                    "output" : 16
                },
                {
                    "input" : 7,
                    "interpolation" : "LINEAR",
                    "output" : 17
                },
                {
                    "input" : 7,
                    "interpolation" : "LINEAR",
                    "output" : 18
                },
                {
                    "input" : 7,
                    "interpolation" : "LINEAR",
                    "output" : 19
                }
            ]
        }
    ],
    "materials" : [
        {
            "doubleSided" : true,
            "name" : "Material",
            "pbrMetallicRoughness" : {
                "baseColorTexture" : {
                    "index" : 0
                },
                "metallicFactor" : 0,
                "roughnessFactor" : 0.5
            }
        }
    ],
    "meshes" : [
        {
            "name" : "Cylinder",
            "primitives" : [
                {
                    "attributes" : {
                        "POSITION" : 0,
                        "NORMAL" : 1,
                        "TEXCOORD_0" : 2,
                        "JOINTS_0" : 3,
                        "WEIGHTS_0" : 4
                    },
                    "indices" : 5,
                    "material" : 0
                }
            ]
        }
    ],
    "textures" : [
        {
            "sampler" : 0,
            "source" : 0
        }
    ],
    "images" : [
        {
            "bufferView" : 6,
            "mimeType" : "image/png",
            "name" : "GodTex"
        }
    ],
    "skins" : [
        {
            "inverseBindMatrices" : 6,
            "joints" : [
                1,
                4,
                3,
                2
            ],
            "name" : "God_Rig"
        }
    ],
    "accessors" : [
        {
            "bufferView" : 0,
            "componentType" : 5126,
            "count" : 836,
            "max" : [
                0.5275952816009521,
                1.1885348558425903,
                0.9989931583404541
            ],
            "min" : [
                -0.5275952816009521,
                -0.2611863911151886,
                -2.0290753841400146
            ],
            "type" : "VEC3"
        },
        {
            "bufferView" : 1,
            "componentType" : 5126,
            "count" : 836,
            "type" : "VEC3"
        },
        {
            "bufferView" : 2,
            "componentType" : 5126,
            "count" : 836,
            "type" : "VEC2"
        },
        {
            "bufferView" : 3,
            "componentType" : 5121,
            "count" : 836,
            "type" : "VEC4"
        },
        {
            "bufferView" : 4,
            "componentType" : 5126,
            "count" : 836,
            "type" : "VEC4"
        },
        {
            "bufferView" : 5,
            "componentType" : 5123,
            "count" : 2385,
            "type" : "SCALAR"
        },
        {
            "bufferView" : 7,
            "componentType" : 5126,
            "count" : 4,
            "type" : "MAT4"
        },
        {
            "bufferView" : 8,
            "componentType" : 5126,
            "count" : 241,
            "max" : [
                4
            ],
            "min" : [
                0
            ],
            "type" : "SCALAR"
        },
        {
            "bufferView" : 9,
            "componentType" : 5126,
            "count" : 241,
            "type" : "VEC3"
        },
        {
            "bufferView" : 10,
            "componentType" : 5126,
            "count" : 241,
            "type" : "VEC4"
        },
        {
            "bufferView" : 11,
            "componentType" : 5126,
            "count" : 241,
            "type" : "VEC3"
        },
        {
            "bufferView" : 12,
            "componentType" : 5126,
            "count" : 241,
            "type" : "VEC3"
        },
        {
            "bufferView" : 13,
            "componentType" : 5126,
            "count" : 241,
            "type" : "VEC4"
        },
        {
            "bufferView" : 14,
            "componentType" : 5126,
            "count" : 241,
            "type" : "VEC3"
        },
        {
            "bufferView" : 15,
            "componentType" : 5126,
            "count" : 241,
            "type" : "VEC3"
        },
        {
            "bufferView" : 16,
            "componentType" : 5126,
            "count" : 241,
            "type" : "VEC4"
        },
        {
            "bufferView" : 17,
            "componentType" : 5126,
            "count" : 241,
            "type" : "VEC3"
        },
        {
            "bufferView" : 18,
            "componentType" : 5126,
            "count" : 241,
            "type" : "VEC3"
        },
        {
            "bufferView" : 19,
            "componentType" : 5126,
            "count" : 241,
            "type" : "VEC4"
        },
        {
            "bufferView" : 20,
            "componentType" : 5126,
            "count" : 241,
            "type" : "VEC3"
        }
    ],
    "bufferViews" : [
        {
            "buffer" : 0,
            "byteLength" : 10032,
            "byteOffset" : 0,
            "target" : 34962
        },
        {
            "buffer" : 0,
            "byteLength" : 10032,
            "byteOffset" : 10032,
            "target" : 34962
        },
        {
            "buffer" : 0,
            "byteLength" : 6688,
            "byteOffset" : 20064,
            "target" : 34962
        },
        {
            "buffer" : 0,
            "byteLength" : 3344,
            "byteOffset" : 26752,
            "target" : 34962
        },
        {
            "buffer" : 0,
            "byteLength" : 13376,
            "byteOffset" : 30096,
            "target" : 34962
        },
        {
            "buffer" : 0,
            "byteLength" : 4770,
            "byteOffset" : 43472,
            "target" : 34963
        },
        {
            "buffer" : 0,
            "byteLength" : 85288,
            "byteOffset" : 48244
        },
        {
            "buffer" : 0,
            "byteLength" : 256,
            "byteOffset" : 133532
        },
        {
            "buffer" : 0,
            "byteLength" : 964,
            "byteOffset" : 133788
        },
        {
            "buffer" : 0,
            "byteLength" : 2892,
            "byteOffset" : 134752
        },
        {
            "buffer" : 0,
            "byteLength" : 3856,
            "byteOffset" : 137644
        },
        {
            "buffer" : 0,
            "byteLength" : 2892,
            "byteOffset" : 141500
        },
        {
            "buffer" : 0,
            "byteLength" : 2892,
            "byteOffset" : 144392
        },
        {
            "buffer" : 0,
            "byteLength" : 3856,
            "byteOffset" : 147284
        },
        {
            "buffer" : 0,
            "byteLength" : 2892,
            "byteOffset" : 151140
        },
        {
            "buffer" : 0,
            "byteLength" : 2892,
            "byteOffset" : 154032
        },
        {
            "buffer" : 0,
            "byteLength" : 3856,
            "byteOffset" : 156924
        },
        {
            "buffer" : 0,
            "byteLength" : 2892,
            "byteOffset" : 160780
        },
        {
            "buffer" : 0,
            "byteLength" : 2892,
            "byteOffset" : 163672
        },
        {
            "buffer" : 0,
            "byteLength" : 3856,
            "byteOffset" : 166564
        },
        {
            "buffer" : 0,
            "byteLength" : 2892,
            "byteOffset" : 170420
        }
    ],
    "samplers" : [
        {
            "magFilter" : 9729,
            "minFilter" : 9987
        }
    ],
    "buffers" : [
        {
            "byteLength" : 173312,
            "uri" : "data:application/octet-stream;base64,"
        }
    ]
}
