{
    "asset" : {
        "generator" : "Khronos glTF Blender I/O v3.3.32",
        "version" : "2.0"
    },
    "scene" : 0,
    "scenes" : [
        {
            "name" : "Scene",
            "nodes" : [
                5
            ]
        }
    ],
    "nodes" : [
        {
            "name" : "Gill_Head",
            "rotation" : [
                -2.340300220282643e-08,
                1.1888231822678233e-16,
                1.1888231822678233e-16,
                1
            ],
            "translation" : [
                -1.6076754901019896e-23,
                0.9338840842247009,
                7.105427357601002e-15
            ]
        },
        {
            "name" : "Gill_Tail",
            "rotation" : [
                2.3403018190037983e-08,
                4.371138828673793e-08,
                1.1418597052051047e-15,
                1
            ],
            "translation" : [
                1.7205356741102976e-22,
                1.0425159931182861,
                8.881784197001252e-15
            ]
        },
        {
            "children" : [
                1
            ],
            "name" : "Gill_Abdo",
            "rotation" : [
                1,
                2.3776468939312387e-16,
                -4.371138828673793e-08,
                4.680601861650757e-08
            ],
            "translation" : [
                -1.9081439314307156e-23,
                -2.9802322387695312e-08,
                -1.7763568394002505e-15
            ]
        },
        {
            "children" : [
                0,
                2
            ],
            "name" : "Gill_Root",
            "rotation" : [
                7.736558060855714e-10,
                -7.860015764266678e-18,
                -7.860015764266678e-18,
                1
            ],
            "translation" : [
                -3.018837004542902e-17,
                0.1359563171863556,
                -5.942840886064005e-09
            ]
        },
        {
            "mesh" : 0,
            "name" : "Gilliam",
            "skin" : 0
        },
        {
            "children" : [
                4,
                3
            ],
            "name" : "Gill_Rig",
            "rotation" : [
                0.7071068286895752,
                0,
                0,
                0.7071068286895752
            ],
            "scale" : [
                0.46171703934669495,
                0.46171703934669495,
                0.46171703934669495
            ],
            "translation" : [
                0,
                0,
                -0.2861891984939575
            ]
        }
    ],
    "animations" : [
        {
            "channels" : [
                {
                    "sampler" : 0,
                    "target" : {
                        "node" : 3,
                        "path" : "translation"
                    }
                },
                {
                    "sampler" : 1,
                    "target" : {
                        "node" : 3,
                        "path" : "rotation"
                    }
                },
                {
                    "sampler" : 2,
                    "target" : {
                        "node" : 3,
                        "path" : "scale"
                    }
                },
                {
                    "sampler" : 3,
                    "target" : {
                        "node" : 0,
                        "path" : "translation"
                    }
                },
                {
                    "sampler" : 4,
                    "target" : {
                        "node" : 0,
                        "path" : "rotation"
                    }
                },
                {
                    "sampler" : 5,
                    "target" : {
                        "node" : 0,
                        "path" : "scale"
                    }
                },
                {
                    "sampler" : 6,
                    "target" : {
                        "node" : 2,
                        "path" : "translation"
                    }
                },
                {
                    "sampler" : 7,
                    "target" : {
                        "node" : 2,
                        "path" : "rotation"
                    }
                },
                {
                    "sampler" : 8,
                    "target" : {
                        "node" : 2,
                        "path" : "scale"
                    }
                },
                {
                    "sampler" : 9,
                    "target" : {
                        "node" : 1,
                        "path" : "translation"
                    }
                },
                {
                    "sampler" : 10,
                    "target" : {
                        "node" : 1,
                        "path" : "rotation"
                    }
                },
                {
                    "sampler" : 11,
                    "target" : {
                        "node" : 1,
                        "path" : "scale"
                    }
                }
            ],
            "name" : "ArmatureAction",
            "samplers" : [
                {
                    "input" : 7,
                    "interpolation" : "LINEAR",
                    "output" : 8
                },
                {
                    "input" : 7,
                    "interpolation" : "LINEAR",
                    "output" : 9
                },
                {
                    "input" : 7,
                    "interpolation" : "LINEAR",
                    "output" : 10
                },
                {
                    "input" : 7,
                    "interpolation" : "LINEAR",
                    "output" : 11
                },
                {
                    "input" : 7,
                    "interpolation" : "LINEAR",
                    "output" : 12
                },
                {
                    "input" : 7,
                    "interpolation" : "LINEAR",
                    "output" : 13
                },
                {
                    "input" : 7,
                    "interpolation" : "LINEAR",
                    "output" : 14
                },
                {
                    "input" : 7,
                    "interpolation" : "LINEAR",
                    "output" : 15
                },
                {
                    "input" : 7,
                    "interpolation" : "LINEAR",
                    "output" : 16
                },
                {
                    "input" : 7,
                    "interpolation" : "LINEAR",
                    "output" : 17
                },
                {
                    "input" : 7,
                    "interpolation" : "LINEAR",
                    "output" : 18
                },
                {
                    "input" : 7,
                    "interpolation" : "LINEAR",
                    "output" : 19
                }
            ]
        }
    ],
    "materials" : [
        {
            "doubleSided" : true,
            "name" : "Material",
            "pbrMetallicRoughness" : {
                "baseColorTexture" : {
                    "index" : 0
                },
                "metallicFactor" : 0,
                "roughnessFactor" : 0.5
            }
        }
    ],
    "meshes" : [
        {
            "name" : "Cylinder",
            "primitives" : [
                {
                    "attributes" : {
                        "POSITION" : 0,
                        "NORMAL" : 1,
                        "TEXCOORD_0" : 2,
                        "JOINTS_0" : 3,
                        "WEIGHTS_0" : 4
                    },
                    "indices" : 5,
                    "material" : 0
                }
            ]
        }
    ],
    "textures" : [
        {
            "sampler" : 0,
            "source" : 0
        }
    ],
    "images" : [
        {
            "bufferView" : 6,
            "mimeType" : "image/png",
            "name" : "GilliamTex"
        }
    ],
    "skins" : [
        {
            "inverseBindMatrices" : 6,
            "joints" : [
                3,
                0,
                2,
                1
            ],
            "name" : "Gill_Rig"
        }
    ],
    "accessors" : [
        {
            "bufferView" : 0,
            "componentType" : 5126,
            "count" : 154,
            "max" : [
                0.14318852126598358,
                0.5151065587997437,
                0.6455003023147583
            ],
            "min" : [
                -0.14318852126598358,
                -0.30759987235069275,
                -1.3710271120071411
            ],
            "type" : "VEC3"
        },
        {
            "bufferView" : 1,
            "componentType" : 5126,
            "count" : 154,
            "type" : "VEC3"
        },
        {
            "bufferView" : 2,
            "componentType" : 5126,
            "count" : 154,
            "type" : "VEC2"
        },
        {
            "bufferView" : 3,
            "componentType" : 5121,
            "count" : 154,
            "type" : "VEC4"
        },
        {
            "bufferView" : 4,
            "componentType" : 5126,
            "count" : 154,
            "type" : "VEC4"
        },
        {
            "bufferView" : 5,
            "componentType" : 5123,
            "count" : 624,
            "type" : "SCALAR"
        },
        {
            "bufferView" : 7,
            "componentType" : 5126,
            "count" : 4,
            "type" : "MAT4"
        },
        {
            "bufferView" : 8,
            "componentType" : 5126,
            "count" : 31,
            "max" : [
                0.5
            ],
            "min" : [
                0
            ],
            "type" : "SCALAR"
        },
        {
            "bufferView" : 9,
            "componentType" : 5126,
            "count" : 31,
            "type" : "VEC3"
        },
        {
            "bufferView" : 10,
            "componentType" : 5126,
            "count" : 31,
            "type" : "VEC4"
        },
        {
            "bufferView" : 11,
            "componentType" : 5126,
            "count" : 31,
            "type" : "VEC3"
        },
        {
            "bufferView" : 12,
            "componentType" : 5126,
            "count" : 31,
            "type" : "VEC3"
        },
        {
            "bufferView" : 13,
            "componentType" : 5126,
            "count" : 31,
            "type" : "VEC4"
        },
        {
            "bufferView" : 14,
            "componentType" : 5126,
            "count" : 31,
            "type" : "VEC3"
        },
        {
            "bufferView" : 15,
            "componentType" : 5126,
            "count" : 31,
            "type" : "VEC3"
        },
        {
            "bufferView" : 16,
            "componentType" : 5126,
            "count" : 31,
            "type" : "VEC4"
        },
        {
            "bufferView" : 17,
            "componentType" : 5126,
            "count" : 31,
            "type" : "VEC3"
        },
        {
            "bufferView" : 18,
            "componentType" : 5126,
            "count" : 31,
            "type" : "VEC3"
        },
        {
            "bufferView" : 19,
            "componentType" : 5126,
            "count" : 31,
            "type" : "VEC4"
        },
        {
            "bufferView" : 20,
            "componentType" : 5126,
            "count" : 31,
            "type" : "VEC3"
        }
    ],
    "bufferViews" : [
        {
            "buffer" : 0,
            "byteLength" : 1848,
            "byteOffset" : 0,
            "target" : 34962
        },
        {
            "buffer" : 0,
            "byteLength" : 1848,
            "byteOffset" : 1848,
            "target" : 34962
        },
        {
            "buffer" : 0,
            "byteLength" : 1232,
            "byteOffset" : 3696,
            "target" : 34962
        },
        {
            "buffer" : 0,
            "byteLength" : 616,
            "byteOffset" : 4928,
            "target" : 34962
        },
        {
            "buffer" : 0,
            "byteLength" : 2464,
            "byteOffset" : 5544,
            "target" : 34962
        },
        {
            "buffer" : 0,
            "byteLength" : 1248,
            "byteOffset" : 8008,
            "target" : 34963
        },
        {
            "buffer" : 0,
            "byteLength" : 39258,
            "byteOffset" : 9256
        },
        {
            "buffer" : 0,
            "byteLength" : 256,
            "byteOffset" : 48516
        },
        {
            "buffer" : 0,
            "byteLength" : 124,
            "byteOffset" : 48772
        },
        {
            "buffer" : 0,
            "byteLength" : 372,
            "byteOffset" : 48896
        },
        {
            "buffer" : 0,
            "byteLength" : 496,
            "byteOffset" : 49268
        },
        {
            "buffer" : 0,
            "byteLength" : 372,
            "byteOffset" : 49764
        },
        {
            "buffer" : 0,
            "byteLength" : 372,
            "byteOffset" : 50136
        },
        {
            "buffer" : 0,
            "byteLength" : 496,
            "byteOffset" : 50508
        },
        {
            "buffer" : 0,
            "byteLength" : 372,
            "byteOffset" : 51004
        },
        {
            "buffer" : 0,
            "byteLength" : 372,
            "byteOffset" : 51376
        },
        {
            "buffer" : 0,
            "byteLength" : 496,
            "byteOffset" : 51748
        },
        {
            "buffer" : 0,
            "byteLength" : 372,
            "byteOffset" : 52244
        },
        {
            "buffer" : 0,
            "byteLength" : 372,
            "byteOffset" : 52616
        },
        {
            "buffer" : 0,
            "byteLength" : 496,
            "byteOffset" : 52988
        },
        {
            "buffer" : 0,
            "byteLength" : 372,
            "byteOffset" : 53484
        }
    ],
    "samplers" : [
        {
            "magFilter" : 9729,
            "minFilter" : 9987
        }
    ],
    "buffers" : [
        {
            "byteLength" : 53856,
            "uri" : "data:application/octet-stream;base64,"
        }
    ]
}
